P2
# 8-bit pgm - grayscale
107 107
255
255 255 255 255 255 255 255 255 252 242 242 242 242 242 242 242 242 242 242 242 242 242 242 242
242 242 242 242 242 242 242 242 242 242 242 242 242 242 242 242 242 242 242 242 242 242 242 242
242 242 242 242 242 242 242 242 242 242 242 242 242 242 242 242 242 242 242 242 242 242 242 242
242 242 242 242 242 242 242 242 242 242 242 242 242 242 242 242 242 242 242 242 242 242 242 241
251 255 255 255 255 253 252 252 252 252 252
255 255 255 255 255 255 254 255 231  16  54  50  49  49  49  49  50  50  50  50  50  50  50  50
 50  50  50  50  50  50  50  50  50  50  50  50  50  50  50  50  50  51  51  51  51  51  51  50
 50  50  50  50  50  50  50  50  50  50  50  50  50  49  47  48  49  49  50  50  50  50  50  50
 50  50  50  49  49  49  49  49  49  49  49  49  49  49  49  49  49  49  49  49  49  48  59   0
216 255 253 255 255 255 255 255 255 255 255
255 255 255 255 255 255 254 255 230   0   0   0   0   0   0   0   0   0   0   0   0   0   0   0
  0   0   0   0   0   0   0   0   0   0   0   0   0   0   0   0   0   0   0   0   0   0   0   0
  0   0   0   0   0   0   0   0   0   0   0   0   0   0   0   0   0   0   0   0   0   0   0   0
  0   0   0   0   0   0   0   0   0   0   0   0   0   0   0   0   0   0   0   0   0   0  20   0
214 255 253 255 255 255 255 255 255 255 255
255 255 255 255 255 255 254 255 231   0  31  25  23  23  23  23  23  23  23  23  23  23  23  23
 23  23  23  23  23  23  23  23  23  23  23  23  23  23  23  23  23  23  23  23  23  23  23  23
 23  23  23  23  23  23  23  23  23  23  23  23  23  23  23  23  23  23  23  23  23  23  23  23
 23  23  23  23  23  23  23  23  23  23  23  23  23  23  23  23  23  23  23  23  23  21  41   0
215 255 253 255 255 255 255 255 255 255 255
255 255 255 255 255 255 254 255 231   0  23  13  11  10  10  10  10  10  10  10  10  10  10  10
 10  10  10  10  10  10  10  10  10  10  10  10  10  10  10  10  10  10  10  10  10  10  10  10
 10  10  10  10  10  10  10  10  10  10  10  10  10  10  10  10  10  10  10  10  10  10  10  10
 10  10  10  10  10  10  10  10  10  10  10  10  10  10  10  10  10  10  10  10  10   7  35   0
215 255 253 255 255 255 255 255 255 255 255
255 255 255 255 255 255 254 255 231   0  22  13  10  10  10  10  10  10  10  10  10  10  10  10
 10  10  10  10  10  10  10  10  10  10  10  10  10  10  10  10  10  10  10  10  10  10  10  10
 10  10  10  10  10  10  10  10  10  10  10  10  10  10  10  10  10  10  10  10  10  10  10  10
 10  10  10  10  10  10  10  10  10  10  10  10  10  10  10  10  10  10  10  10  10   7  35   0
215 255 253 255 255 255 255 255 255 255 255
255 255 255 255 255 255 254 255 230   0  22  13  10  10  10  10  10  10  10  10  10  10  10  10
 10  10  10  10  10  10  10  10  10  10  10  10  10  10  10  10  10  10  10  10  10  10  10  10
 10  10  10  10  10  10  10  10  10  10  10  10  10  10  10  10  10  10  10  10  10  10  10  10
 10  10  10  10  10  10  10  10  10  10  10  10  10  10  10  10  10  10  10  10  10   7  35   0
215 255 253 255 255 255 255 255 255 255 255
255 255 255 255 255 255 254 255 230   0  22  13  10  10  10  10  10  10  10  10  10  10  10  10
 10  10  10  10  10  10  10  10  10  10  10  10  10  10  10  10  10  10  10  10  10  10  10  10
 10  10  10  10  10  10  10  10  10  10  10  10  10  10  10  10  10  10  10  10  10  10  10  10
 10  10  10  10  10  10  10  10  10  10  10  10  10  10  10  10  10  10  10   9  10   6  35   0
215 255 253 255 255 255 255 255 255 255 255
255 255 255 255 255 255 254 255 231   0  22  13  10  10  10  10  10  10  10  10  10  10  10  10
 10  10  10  10  10  10  10  10  10  10  10  10  10  10  10  10  10  10  10  10  10  10  10  10
 10  10  10  10  10  10  10  10  10  10  10  10  10  10  10  10  10  10  10  10  10  10  10  10
 10  10  10  10  10  10  10  10  10  10  10  10  10  10  10  10  10  10   9   9   9   6  35   0
215 255 253 255 255 255 255 255 255 255 255
255 255 255 255 255 255 254 255 230   0  22  13  10  10  10  10  10  10  10  10  10  10  10  10
 10  10  10  10  10  10  10  10  10  10  10  10  10  10  10  10  10  10  10  10  10  10  10  10
 10  10  10  10  10  10  10  10  10  10  10  10  10  10  10  10  10  10  10  10  10  10  10  10
 10  10  10  10  10  10  10  10  10  10  10  10  10  10  10  10  10   9   9   9   9   6  35   0
215 255 253 255 255 255 255 255 255 255 255
255 255 255 255 255 255 254 255 230   0  22  13  10  10  10  10  10  10  10  10  10  10  10  10
 10  10  10  10  10  10  10  10  10  10  10  10  10  10  10  10  10  10  10  10  10  10  10  10
 10  10  10  10  10  10  10  10  10  10  10  10  10  10  10  10  10  10  10  10  10  10  10  10
 10  10  10  10  10  10  10  10  10  10  10  10  10  10  10  10   9   9   9   9   9   5  35   0
215 255 253 255 255 255 255 255 255 255 255
255 255 255 255 255 255 254 255 231   0  22  13  10  10  10  10  10  10  10  10  10  10  10  10
 10  10  10  10  10  10  10  10  10  10  10  10  10  10  10  10  10  10  10  10  10  10  10  10
 10  10  10  10  10  10  10  10  10  10  10  10  10  10  10  10  10  10  10  10  10  10  10  10
 10  10  10  10  10  10  10  10  10  10  10  10  10  10   9   9   9   9   8   8   8   5  35   0
215 255 253 255 255 255 255 255 255 255 255
255 255 255 255 255 255 254 255 231   0  22  13  10  10  10  10  10  10  10  10  10  10  10  10
 10  10  10  10  10  10  10  10  10  10  10  10  10  10  10  10  10  10  10  10  10  10  10  10
 10  10  10  10  10  10  10  10  10  10  10  10  10  10  10  10  10  10  10  10  10  10  10  10
 10  10  10  10  10  10  10  10  10  10  10  10   9   9   9   9   9   8   8   8   8   5  35   0
215 255 253 255 255 255 255 255 255 255 255
255 255 255 255 255 255 254 255 231   0  22  13  10  10  10  10  10  10  10  10  10  10  10  10
 10  10  10  10  10  10  10  10  10  10  10  10  10  10  10  10  10  10  10  10  10  10  10  10
 10  10  10  10  10  10  10  10  10  10  10  10  10  10  10  10  10  10  10  10  10  10  10  10
 10  10  10  10  10  10  10  10  10  10  10   9   9   9   9   8   8   8   8   8   8   5  35   0
215 255 253 255 255 255 255 255 255 255 255
255 255 255 255 255 255 254 255 231   0  22  13  10  10  10  10  10  10  10  10  10  10  10  10
 10  10  10  10  10  10  10  10  10  10  10  10  10  10  10  10  10  10  10  10  10  10  10  10
 10  10  10  10  10  10  10  10  10  10  10  10  10  10  10  10  10  10  10  10  10  10  10  10
 10  10  10  10  10  10  10  10  10  10   9   9   9   9   8   8   8   8   8   8   8   5  35   0
215 255 253 255 255 255 255 255 255 255 255
255 255 255 255 255 255 254 255 231   0  22  13  10  10  10  10  10  10  10  10  10  10  10  10
 10  10  10  10  10  10  10  10  10  10  10  10  10  10  10  10  10  10  10  10  10  10  10  10
 10  10  10  10  10  10  10  10  10  10  10  10  10  10  10  10  10  10  10  10  10  10  10  10
 10  10  10  10  10  10  10  10   9   9   9   9   8   8   8   8   8   8   8   8   8   5  35   0
215 255 253 255 255 255 255 255 255 255 255
255 255 255 255 255 255 254 255 231   0  22  13  10  10  10  10  10  10  10  10  10  10  10  10
 10  10  10  10  10  10  10  10  10  10  10  10  10  10  10  10  10  10  10  10  10  10  10  10
 10  10  10  10  10  10  10  10  10  10  10  10  10  10  10  10  10  10  10  10  10  10  10  10
 10  10  10  10  10  10  10   9   9   9   9   8   8   8   8   8   8   8   8   8   8   5  35   0
215 255 253 255 255 255 255 255 255 255 255
255 255 255 255 255 255 254 255 231   0  22  13  10  10  10  10  10  10  10  10  10  10  10  10
 10  10  10  10  10  10  10  10  10  10  10  10  10  10  10  10  10  10  10  10  10  10  10  10
 10  10  10  10  10  10  10  10  10  10  10  10  10  10  10  10  10  10  10  10  10  10  10  10
 10  10  10  10  10   9   9   9   9   8   8   8   8   8   8   8   8   8   8   8   8   5  35   0
215 255 253 255 255 255 255 255 255 255 255
255 255 255 255 255 255 254 255 231   0  22  13  10  10  10  10  10  10  10  10  10  10  10  10
 10  10  10  10  10  10  10  10  10  10  10  10  10  10  10  10  10  10  10  10  10  10  10  10
 10  10  10  10  10  10  10  10  10  10  10  10  10  10  10  10  10  10  10  10  10  10  10  10
 10  10  10  10   9   9   9   9   8   8   8   8   8   8   8   8   8   8   8   8   8   5  35   0
215 255 253 255 255 255 255 255 255 255 255
255 255 255 255 255 255 254 255 231   0  22  13  10  10  10  10  10  10  10  10  10  10  10  10
 10  10  10  10  10  10  10  10  10  10  10  10  10  10  10  10  10  10  10  10  10  10  10  10
 10  10  10  10  10  10  10  10  10  10  10  10  10  10  10  10  10  10  10  10  10  10  10  10
 10  10  10   9   9   9   8   8   8   8   8   8   8   8   8   8   8   8   8   8   8   5  35   0
215 255 253 255 255 255 255 255 255 255 255
255 255 255 255 255 255 254 255 231   0  22  13  10  10  10  10  10  10  10  10  10  10  10  10
 10  10  10  10  10  10  10  10  10  10  10  10  10  10  10  10  10  10  10  10  10  10  10  10
 10  10  10  10  10  10  10  10  10  10  10  10  10  10  10  10  10  10  10  10  10  10  10  10
 10   9   9   9   9   8   8   8   8   8   8   8   8   8   8   8   8   8   8   8   8   5  35   0
215 255 253 255 255 255 255 255 255 255 255
255 255 255 255 255 255 254 255 231   0  22  13  10  10  10  10  10  10  10  10  10  10  10  10
 10  10  10  10  10  10  10  10  10  10  10  10  10  10  10  10  10  10  10  10  10  10  10  10
 10  10  10  10  10  10  10  10  10  10  10  10  10  10  10  10  10  10  10  10  10  10  10   9
  9   9   9   9   8   8   8   8   8   8   8   8   8   8   8   8   8   8   8   8   8   5  35   0
215 255 253 255 255 255 255 255 255 255 255
255 255 255 255 255 255 254 255 231   0  22  13  10  10  10  10  10  10  10  10  10  10  10  10
 10  10  10  10  10  10  10  10  10  10  10  10  10  10  10  10  10  10  10  10  10  10  10  10
 10  10  10  10  10  10  10  10  10  10  10  10  10  10  10  10  10  10  10  10  10  10   9   9
  9   9   8   8   8   8   8   8   8   8   8   8   8   8   8   8   8   8   8   8   8   5  35   0
215 255 253 255 255 255 255 255 255 255 255
255 255 255 255 255 255 254 255 231   0  22  13  10  10  10  10  10  10  10  10  10  10  10  10
 10  10  10  10  10  10  10  10  10  10  10  10  10  10  10  10  10  10  10  10  10  10  10  10
 10  10  10  10  10  10  10  10  10  10  10  10  10  10  10  10  10  10  10  10  10   9   9   9
  9   8   8   8   8   8   8   8   8   8   8   8   8   8   8   8   8   8   8   8   8   5  35   0
215 255 253 255 255 255 255 255 255 255 255
255 255 255 255 255 255 254 255 231   0  22  13  10  10  10  10  10  10  10  10  10  10  10  10
 10  10  10  10  10  10  10  10  10  10  10  10  10  10  10  10  10  10  10  10  10  10  10  10
 10  10  10  10  10  10  10  10  10  10  10  10  10  10  10  10  10  10  10   9   9   9   9   9
  8   8   8   8   8   8   8   8   8   8   8   8   8   8   8   8   8   8   8   8   8   5  35   0
215 255 253 255 255 255 255 255 255 255 255
255 255 255 255 255 255 254 255 231   0  22  13  10  10  10  10  10  10  10  10  10  10  10  10
 10  10  10  10  10  10  10  10  10  10  10  10  10  10  10  10  10  10  10  10  10  10  10  10
 10  10  10  10  10  10  10  10  10  10  10  10  10  10  10  10  10  10   9   9   9   9   8   8
  8   8   8   8   8   8   8   8   8   8   8   8   8   8   8   8   8   8   8   8   8   5  35   0
215 255 253 255 255 255 255 255 255 255 255
255 255 255 255 255 255 254 255 231   0  22  13  10  10  10  10  10  10  10  10  10  10  10  10
 10  10  10  10  10  10  10  10  10  10  10  10  10  10  10  10  10  10  10  10  10  10  10  10
 10  10  10  10  10  10  10  10  10  10  10  10  10  10  10  10   9   9   9   9   9   8   8   8
  8   8   8   8   8   8   8   8   8   8   8   8   8   8   8   8   8   8   8   8   8   5  35   0
215 255 253 255 255 255 255 255 255 255 255
255 255 255 255 255 255 254 255 231   0  22  13  10  10  10  10  10  10  10  10  10  10  10  10
 10  10  10  10  10  10  10  10  10  10  10  10  10  10  10  10  10  10  10  10  10  10  10  10
 10  10  10  10  10  10  10  10  10  10  10  10  10  10  10   9   9   9   9   8   8   8   8   8
  8   8   8   8   8   8   8   8   8   8   8   8   8   8   8   8   8   8   8   8   8   5  35   0
215 255 253 255 255 255 255 255 255 255 255
255 255 255 255 255 255 254 255 231   0  22  13  10  10  10  10  10  10  10  10  10  10  10  10
 10  10  10  10  10  10  10  10  10  10  10  10  10  10  10  10  10  10  10  10  10  10  10  10
 10  10  10  10  10  10  10  10  10  10  10  10  10  10   9   9   9   9   8   8   8   8   8   8
  8   8   8   8   8   8   8   8   8   8   8   8   8   8   8   8   8   8   8   8   8   5  35   0
215 255 253 255 255 255 255 255 255 255 255
255 255 255 255 255 255 254 255 231   0  22  13  10  10  10  10  10  10  10  10  10  10  10  10
 10  10  10  10  10  10  10  10  10  10  10  10  10  10  10  10  10  10  10  10  10  10  10  10
 10  10  10  10  10  10  10  10  10  10  10  10   9   9   9   9   9   8   8   8   8   8   8   8
  8   8   8   8   8   8   8   8   8   8   8   8   8   8   8   8   8   8   8   8   8   5  35   0
215 255 253 255 255 255 255 255 255 255 255
255 255 255 255 255 255 254 255 230   0  22  13  10  10  10  10  10  10  10  10  10  10  10  10
 10  10  10  10  10  10  10  10  10  10  10  10  10  10  10  10  10  10  10  10  10  10  10  10
 10  10  10  10  10  10  10  10  10  10  10   9   9   9   9   8   8   8   8   8   8   8   8   8
  8   8   8   8   8   8   8   8   8   8   8   8   8   8   8   8   8   8   8   8   8   5  35   0
215 255 253 255 255 255 255 255 255 255 255
255 255 255 255 255 255 254 255 231   0  22  13  10  10  10  10  10  10  10  10  10  10  10  10
 10  10  10  10  10  10  10  10  10  10  10  10  10  10  10  10  10  10  10  10  10  10  10  10
 10  10  10  10  10  10  10  10  10   9   9   9   9   8   8   8   8   8   8   8   8   8   8   8
  8   8   8   8   8   8   8   8   8   8   8   8   8   8   8   8   8   8   8   8   8   5  35   0
215 255 253 255 255 255 255 255 255 255 255
255 255 255 255 255 255 254 255 231   0  22  13  10  10  10  10  10  10  10  10  10  10  10  10
 10  10  10  10  10  10  10  10  10  10  10  10  10  10  10  10  10  10  10  10  10  10  10  10
 10  10  10  10  10  10  10  10   9   9   9   9   8   8   8   8   8   8   8   8   8   8   8   8
  8   8   8   8   8   8   8   8   8   8   8   8   8   8   8   8   8   8   8   8   8   5  35   0
215 255 253 255 255 255 255 255 255 255 255
255 255 255 255 255 255 254 255 231   0  22  13  10  10  10  10  10  10  10  10  10  10  10  10
 10  10  10  10  10  10  10  10  10  10  10  10  10  10  10  10  10  10  10  10  10  10  10  10
 10  10  10  10  10  10   9   9   9   9   9   8   8   8   8   8   8   8   8   8   8   8   8   8
  8   8   8   8   8   8   8   8   8   8   8   8   8   8   8   8   8   8   8   8   8   5  35   0
215 255 253 255 255 255 255 255 255 255 255
255 255 255 255 255 255 254 255 231   0  22  13  10  10  10  10  10  10  10  10  10  10  10  10
 10  10  10  10  10  10  10  10  10  10  10  10  10  10  10  10  10  10  10  10  10  10  10  10
 10  10  10  10  10   9   9   9   9   9   8   8   8   8   8   8   8   8   8   8   8   8   8   8
  8   8   8   8   8   8   8   8   8   8   8   8   8   8   8   8   8   8   8   8   8   5  35   0
215 255 253 255 255 255 255 255 255 255 255
255 255 255 255 255 255 254 255 231   0  22  13  10  10  10  10  10  10  10  10  10  10  10  10
 10  10  10  10  10  10  10  10  10  10  10  10  10  10   9  12  14   9  10  10  10  10  10  10
 10  10  10   9   9   9   9   9   8   8   8   8   8   8   8   8   8   8   8   8   8   8   8   8
  8   8   8   8   8   8   8   8   8   8   8   8   8   8   8   8   8   8   8   8   8   5  35   0
215 255 253 255 255 255 255 255 255 255 255
255 255 255 255 255 255 254 255 231   0  22  13  10  10  10  10  10  10  10  10  10  10  10  10
 10  10  10  10  10  10  10  10  10  10  10  10  10   9  14   0   0  20   7  10  10  10  10  10
 10  10   9   9   9   9   8   8   8   8   8   8   8   8   8   8   8   8   8   8   8   8   8   8
  8   8   8   8   8   8   8   8   8   8   8   8   8   8   8   8   8   8   8   8   8   5  35   0
215 255 253 255 255 255 255 255 255 255 255
255 255 255 255 255 255 254 255 231   0  22  13  10  10  10  10  10  10  10  10  10  10  10  10
 10  10  10  10  10  10  10  10  10  10  10  10  10  12   0  44  26   0  20   4  10  10  10  10
 10   9   9   9   9   8   8   8   8   8   8   8   8   8   8   8   8   8   8   8   8   8   8   8
  8   8   8   8   8   8   8   8   8   8   8   8   8   8   8   8   8   8   8   8   8   5  35   0
215 255 253 255 255 255 255 255 255 255 255
255 255 255 255 255 255 254 255 231   0  22  13  10  10  10  10  10  10  10  10  10  10  10  10
 10  10  10  10  10  10  10  10  10  10  10  10  10  17   0  61 154  16  17  41  11   9  10   9
  9   9   9   8   8   8   8   8   8   8   8   8   8   8   8   8   8   8   8   8   8   8   8   8
  8   8   8   8   8   8   8   8   8   8   8   8   8   8   8   8   8   8   8   8   8   5  35   0
215 255 253 255 255 255 255 255 255 255 255
255 255 255 255 255 255 254 255 231   0  22  13  10  10  10  10  10  10  10  10  10  10  10  10
 10  10  10  10  10  10  10  10  10  10  10  10  10   8  39   0 170 201   0   0  29  27   4  10
  9   9   8   8   8   8   8   8   8   8   8   8   8   8   8   8   8   8   8   8   8   8   8   8
  8   8   8   8   8   8   8   8   8   8   8   8   8   8   8   8   8   8   8   8   8   5  35   0
215 255 253 255 255 255 255 255 255 255 255
255 255 255 255 255 255 254 255 231   0  22  13  10  10  10  10  10  10  10  10  10  10  10  10
 10  10  10  10  10  10  10  10  10  10  10  10  10  10  16   0  43 212 215 165   0   0  34   1
 10   8   8   6   8   8   8   8   8   8   8   8   8   8   8   8   8   8   8   8   8   8   8   8
  8   8   8   8   8   8   8   8   8   8   8   8   8   8   8   8   8   8   8   8   8   5  35   0
215 255 253 255 255 255 255 255 255 255 255
255 255 255 255 255 255 254 255 231   0  22  13  10  10  10  10  10  10  10  10  10  10  10  10
 10  10  10  10  10  10  10  10  10  10  10  10  10  10   8  25   0  25 161 226 213  74   0  40
  2   7  12  29   9   7   8   8   8   8   8   8   8   8   8   8   8   8   8   8   8   8   8   8
  8   8   8   8   8   8   8   8   8   8   8   8   8   8   8   8   8   8   8   8   8   5  35   0
215 255 253 255 255 255 255 255 255 255 255
255 255 255 255 255 255 254 255 231   0  22  13  10  10  10  10  10  10  10  10  10  10  10  10
 10  10  10  10  10  10  10  10  10  10  10  10  10  10  10   4  26   7   0   0 167 230  72   0
 41  23   0   0  27  18   5   8   8   8   8   8   8   8   8   8   8   8   8   8   8   8   8   8
  8   8   8   8   8   8   8   8   8   8   8   8   8   8   8   8   8   8   8   8   8   5  35   0
215 255 253 255 255 255 255 255 255 255 255
255 255 255 255 255 255 254 255 230   0  22  13  10  10  10  10  10  10  10  10  10  10  10  10
 10  10  10  10  10  10  10  10  10  10  10  10  10  10  10  10   7  15  45   0   0 249 240 112
  0   0  58 114   0   0  17   6   8   8   8   8   8   8   8   8   8   8   8   8   8   8   8   8
  8   8   8   8   8   8   8   8   8   8   8   8   8   8   8   8   8   8   8   8   8   5  34   0
215 255 253 255 255 255 255 255 255 255 255
255 255 255 255 255 255 254 255 230   0  22  13  10  10  10  10  10  10  10  10  10  10  10  10
 10  10  10  10  10  10  10  10  10  10  10  10  10  10   9   9   9   9  14  12  41 212 255 254
200   0  48 252 188   0   9  14   8   8   8   8   8   8   8   8   8   8   8   8   8   8   8   8
  8   8   8   8   8   8   8   8   8   8   8   8   8   8   8   8   8   8   8   8   8   5  35   0
215 255 253 255 255 255 255 255 255 255 255
255 255 255 255 255 255 254 255 231   0  22  13  10  10  10  10  10  10  10  10  10  10  10  10
 10  10  10  10  10  10  10  10  10  10  10  10   9   9   9   9   9   8   7  19   0   0 170 255
255 233 212 255 255 193   0  30   7   8   8   8   8   8   8   8   8   8   8   8   8   8   8   8
  8   8   8   8   8   8   8   8   8   8   8   8   8   8   8   8   8   8   8   8   8   5  35   0
215 255 253 255 255 255 255 255 255 255 255
255 255 255 255 255 255 254 255 231   0  22  13  10  10  10  10  10  10  10  10  10  10  10  10
 10  10  10  10  10  10  10  10  10  10  10   9   9   9   9   9   8   8   8   5  20   8   0 134
188 244 255 251 255 239   0  11  11   8   8   8   8   8   8   8   8   8   8   8   8   8   8   8
  8   8   8   8   8   8   8   8   8   8   8   8   8   8   8   8   8   8   8   8   8   5  35   0
215 255 253 255 255 255 255 255 255 255 255
255 255 255 255 255 255 254 255 230   0  22  13  10  10  10  10  10  10  10  10  10  10  10  10
 10  10  10  10  10  10  10  10  10  10   9   9   9   9   8   8   8   8   8   8   5  17  30   0
  0  95 235 255 255 207   0  33   6   8   8   8   7   8   8   8   8   8   8   8   8   8   8   8
  8   8   8   8   8   8   8   8   8   8   8   8   8   8   8   8   8   8   8   8   8   5  35   0
215 255 253 255 255 255 255 255 255 255 255
255 255 255 255 255 255 254 255 231   0  22  13  10  10  10  10  10  10  10  10  10  10  10  10
 10  10  10  10  10  10  10  10   9   9   9   9   9   8   8   8   8   8   8   8   8   8   7  31
 47   0  52 233 255 125   0  31   8   8   7   7  14   9   8   8   8   8   8   8   8   8   8   8
  8   8   8   8   8   8   8   8   8   8   8   8   8   8   8   8   8   8   8   8   8   5  35   0
215 255 253 255 255 255 255 255 255 255 255
255 255 255 255 255 255 254 255 231   0  22  13  10  10  10  10  10  10  10  10  10  10  10  10
 10  10  10  10  10  10  10   9   9   9   9   8   8   8   8   8   8   8   8   8   8   8   8   8
  1  44   0 221 241   0  16   9   5   6  22  14   0   2   8   4   6   8   8   8   8   8   8   8
  8   8   8   8   8   8   8   8   8   8   8   8   8   8   8   8   8   8   8   8   8   5  35   0
215 255 253 255 255 255 255 255 255 255 255
255 255 255 255 255 255 254 255 231   0  22  13  10  10  10  10  10  10  10  10  10  10  10  10
 10  10  10  10  10  10   9   9   9   9   8   8   8   8   8   8   8   8   8   8   8   8   8   7
 31   0 152 255 208   0  48  34  30  28   0   7  57  41  30  38  36  14   6   8   8   8   8   8
  8   8   8   8   8   8   8   8   8   8   8   8   8   8   8   8   8   8   8   8   8   5  35   0
215 255 253 255 255 255 255 255 255 255 255
255 255 255 255 255 255 254 255 231   0  22  13  10  10  10  10  10  10  10  10  10  10  10  10
 10  10  10  10   9   9   9   9   9   8   8   8   8   8   8   8   8   8   8   8   8   8   8   8
 28   0 227 255 216   0   0   0   0   0  81   0 113   0   0   0   0   0  11   7   8   8   8   8
  8   8   8   8   8   8   8   8   8   8   8   8   8   8   8   8   8   8   8   8   8   5  35   0
215 255 253 255 255 255 255 255 255 255 255
255 255 255 255 255 255 254 255 231   0  22  13  10  10  10  10  10  10  10  10  10  10  10  10
 10  10  10   9   9   9   9   8   8   8   8   8   8   8   8   8   8   8   8   8   8   8   8  30
  0 133 255 255 253 157 111 203 224 223 248 218 222 131 176 203 149  37   0  13   8   8   8   8
  8   8   8   8   8   8   8   8   8   8   8   8   8   8   8   8   8   8   8   8   8   5  35   0
215 255 253 255 255 255 255 255 255 255 255
255 255 255 255 255 255 254 255 231   0  22  13  10  10  10  10  10  10  10  10  10  10  10  10
 10   9   9   9   9   9   8   8   8   8   8   8   8   8   8   8   8   8   8   8   8   8   7  29
  0 131 242 249 255 255 254 255 255 255 255 255 255 255 255 255 255 146   0  35   6   8   8   8
  8   8   8   8   8   8   8   8   8   8   8   8   8   8   8   8   8   8   8   8   8   5  35   0
215 255 253 255 255 255 255 255 255 255 255
255 255 255 255 255 255 254 255 231   0  22  13  10  10  10  10  10  10  10  10  10  10  10  10
  9   9   9   9   8   8   8   8   8   8   8   8   8   8   8   8   8   8   8   8   8   8   8   5
 20   0   0 183 255 253 255 255 255 255 255 255 253 255 253 250 255 153   0  36   6   8   8   8
  8   8   8   8   8   8   8   8   8   8   8   8   8   8   8   8   8   8   8   8   8   5  35   0
215 255 253 255 255 255 255 255 255 255 255
255 255 255 255 255 255 254 255 231   0  22  13  10  10  10  10  10  10  10  10  10  10  10   9
  9   9   9   8   8   8   8   8   8   8   8   8   8   8   8   8   8   8   8   8   8   8   8   8
  0  47   0 180 255 252 222 187 159 170 190 239 255 252 255 255 255 156   0  37   6   8   8   8
  8   8   8   8   8   8   8   8   8   8   8   8   8   8   8   8   8   8   8   8   8   5  35   0
215 255 253 255 255 255 255 255 255 255 255
255 255 255 255 255 255 254 255 230   0  22  13  10  10  10  10  10  10  10  10  10   9   9   9
  9   8   8   8   8   8   8   8   8   8   8   8   8   8   8   8   8   8   8   8   8   8   8   8
  7  24   0 121 186 127   0   0   0   0   0 145 255 255 217 169 234 119   0  28   7   8   8   8
  8   8   8   8   8   8   8   8   8   8   8   8   8   8   8   8   8   8   8   8   8   5  35   0
215 255 253 255 255 255 255 255 255 255 255
255 255 255 255 255 255 254 255 230   0  22  13  10  10  10  10  10  10  10  10   9   9   9   9
  8   8   8   8   8   8   8   8   8   8   8   8   8   8   8   8   8   8   8   8   8   8   8   8
  8   4  21   0   0   0  28  52  56  54   0   0 241 238  81   0   0   0  19   5   8   8   8   8
  8   8   8   8   8   8   8   8   8   8   8   8   8   8   8   8   8   8   8   8   8   5  35   0
215 255 253 255 255 255 255 255 255 255 255
255 255 255 255 255 255 254 255 231   0  22  13  10  10  10  10  10  10  10   9   9   9   8   8
  8   8   8   8   8   8   8   8   8   8   8   8   8   8   8   8   8   8   8   8   8   8   8   8
  8   9   4  25  40  33   0   0   0   0 102 168 222  60   0  42  24  21   4   9   8   8   8   8
  8   8   8   8   8   8   8   8   8   8   8   8   8   8   8   8   8   8   8   8   8   5  35   0
215 255 253 255 255 255 255 255 255 255 255
255 255 255 255 255 255 254 255 231   0  22  13  10  10  10  10  10   9   9   9   9   8   8   8
  8   8   8   8   8   8   8   8   8   8   8   8   8   8   8   8   8   8   8   8   8   8   8   8
  8   8   8   6   9   0  37 149 169 204 179 229 175   0  48   0   8   6   8   8   8   8   8   8
  8   8   8   8   8   8   8   8   8   8   8   8   8   8   8   8   8   8   8   8   8   5  35   0
215 255 253 255 255 255 255 255 255 255 255
255 255 255 255 255 255 254 255 231   0  22  13  10  10  10  10   9   9   9   9   8   8   8   8
  8   8   8   8   8   8   8   8   8   8   8   8   8   8   8   8   8   8   8   8   8   8   8   8
  8   8   8   8  15   0  58 138 186 184   0 140  84   0  16   9   8   8   8   8   8   8   8   8
  8   8   8   8   8   8   8   8   8   8   8   8   8   8   8   8   8   8   8   8   8   5  35   0
215 255 253 255 255 255 255 255 255 255 255
255 255 255 255 255 255 254 255 231   0  22  13  10  10   9   9   9   9   8   8   8   8   8   8
  8   8   8   8   8   8   8   8   8   8   8   8   8   8   8   8   8   8   8   8   8   8   8   8
  8   8   8   8   6  12   0   0   0   0  24  48   0  16   7   8   8   8   8   8   8   8   8   8
  8   8   8   8   8   8   8   8   8   8   8   8   8   8   8   8   8   8   8   8   8   5  35   0
215 255 253 255 255 255 255 255 255 255 255
255 255 255 255 255 255 254 255 231   0  22  13  10   9   9   9   9   8   8   8   8   8   8   8
  8   8   8   8   8   8   8   8   8   8   8   8   8   8   8   8   8   8   8   8   8   8   8   8
  8   8   8   8   8   7  13  31  40  40   9   0  17   5   8   8   8   8   8   8   8   8   8   8
  8   8   8   8   8   8   8   8   8   8   8   8   8   8   8   8   8   8   8   8   8   5  35   0
215 255 253 255 255 255 255 255 255 255 255
255 255 255 255 255 255 254 255 231   0  22  12  10   9   9   8   8   8   8   8   8   8   8   8
  8   8   8   8   8   8   8   8   8   8   8   8   8   8   8   8   8   8   8   8   8   8   8   8
  8   8   8   8   8   8   7   4   3   4   8  15   8   8   8   8   8   8   8   8   8   8   8   8
  8   8   8   8   8   8   8   8   8   8   8   8   8   8   8   8   8   8   8   8   8   5  35   0
215 255 253 255 255 255 255 255 255 255 255
255 255 255 255 255 255 254 255 230   0  22  12   9   9   8   8   8   8   8   8   8   8   8   8
  8   8   8   8   8   8   8   8   8   8   8   8   8   8   8   8   8   8   8   8   8   8   8   8
  8   8   8   8   8   8   8   8   8   8   8   8   8   8   8   8   8   8   8   8   8   8   8   8
  8   8   8   8   8   8   8   8   8   8   8   8   8   8   8   8   8   8   8   8   8   5  35   0
215 255 253 255 255 255 255 255 255 255 255
255 255 255 255 255 255 254 255 230   0  22  12   9   8   8   8   8   8   8   8   8   8   8   8
  8   8   8   8   8   8   8   8   8   8   8   8   8   8   8   8   8   8   8   8   8   8   8   8
  8   8   8   8   8   8   8   8   8   8   8   8   8   8   8   8   8   8   8   8   8   8   8   8
  8   8   8   8   8   8   8   8   8   8   8   8   8   8   8   8   8   8   8   8   8   5  35   0
215 255 253 255 255 255 255 255 255 255 255
255 255 255 255 255 255 254 255 230   0  22  12   9   8   8   8   8   8   8   8   8   8   8   8
  8   8   8   8   8   8   8   8   8   8   8   8   8   8   8   8   8   8   8   8   8   8   8   8
  8   8   8   8   8   8   8   8   8   8   8   8   8   8   8   8   8   8   8   8   8   8   8   8
  8   8   8   8   8   8   8   8   8   8   8   8   8   8   8   8   8   8   8   8   8   5  35   0
215 255 253 255 255 255 255 255 255 255 255
255 255 255 255 255 255 254 255 230   0  22  11   8   8   8   8   8   8   8   8   8   8   8   8
  8   8   8   8   8   8   8   8   8   8   8   8   8   8   8   8   8   8   8   8   8   8   8   8
  8   8   8   8   8   8   8   8   8   8   8   8   8   8   8   8   8   8   8   8   8   8   8   8
  8   8   8   8   8   8   8   8   8   8   8   8   8   8   8   8   8   8   8   8   8   5  35   0
215 255 253 255 255 255 255 255 255 255 255
255 255 255 255 255 255 254 255 230   0  21  11   8   8   8   8   8   8   8   8   8   8   8   8
  8   8   8   8   8   8   8   8   8   8   8   8   8   8   8   8   8   8   8   8   8   8   8   8
  8   8   8   8   8   8   8   8   8   8   8   8   8   8   8   8   8   8   8   8   8   8   8   8
  8   8   8   8   8   8   8   8   8   8   8   8   8   8   8   8   8   8   8   8   8   5  35   0
215 255 253 255 255 255 255 255 255 255 255
255 255 255 255 255 255 254 255 230   0  21  11   8   8   8   8   8   8   8   8   8   8   8   8
  8   8   8   8   8   8   8   8   8   8   8   8   8   8   8   8   8   8   8   8   8   8   8   8
  8   8   8   8   8   8   8   8   8   8   8   8   8   8   8   8   8   8   8   8   8   8   8   8
  8   8   8   8   8   8   8   8   8   8   8   8   8   8   8   8   8   8   8   8   8   5  35   0
215 255 253 255 255 255 255 255 255 255 255
255 255 255 255 255 255 254 255 230   0  21  11   8   8   8   8   8   8   8   8   8   8   8   8
  8   8   8   8   8   8   8   8   8   8   8   8   8   8   8   8   8   8   8   8   8   8   8   8
  8   8   8   8   8   8   8   8   8   8   8   8   8   8   8   8   8   8   8   8   8   8   8   8
  8   8   8   8   8   8   8   8   8   8   8   8   8   8   8   8   8   8   8   8   8   5  35   0
215 255 253 255 255 255 255 255 255 255 255
255 255 255 255 255 255 254 255 230   0  21  11   8   8   8   8   8   8   8   8   8   8   8   8
  8   8   8   8   8   8   8   8   8   8   8   8   8   8   8   8   8   8   8   8   8   8   8   8
  8   8   8   8   8   8   8   8   8   8   8   8   8   8   8   8   8   8   8   8   8   8   8   8
  8   8   8   8   8   8   8   8   8   8   8   8   8   8   8   8   8   8   8   8   8   5  35   0
215 255 253 255 255 255 255 255 255 255 255
255 255 255 255 255 255 254 255 230   0  21  11   8   8   8   8   8   8   8   8   8   8   8   8
  8   8   8   8   8   8   8   8   8   8   8   8   8   8   8   8   8   8   8   8   8   8   8   8
  8   8   8   8   8   8   8   8   8   8   8   8   8   8   8   8   8   8   8   8   8   8   8   8
  8   8   8   8   8   8   8   8   8   8   8   8   8   8   8   8   8   8   8   8   8   5  35   0
215 255 253 255 255 255 255 255 255 255 255
255 255 255 255 255 255 254 255 230   0  21  11   8   8   8   8   8   8   8   8   8   8   8   8
  8   8   8   8   8   8   8   8   8   8   8   8   8   8   8   8   8   8   8   8   8   8   8   8
  8   8   8   8   8   8   8   8   8   8   8   8   8   8   8   8   8   8   8   8   8   8   8   8
  8   8   8   8   8   8   8   8   8   8   8   8   8   8   8   8   8   8   8   8   8   5  35   0
215 255 253 255 255 255 255 255 255 255 255
255 255 255 255 255 255 254 255 230   0  21  11   8   8   8   8   8   8   8   8   8   8   8   8
  8   8   8   8   8   8   8   8   8   8   8   8   8   8   8   8   8   8   8   8   8   8   8   8
  8   8   8   8   8   8   8   8   8   8   8   8   8   8   8   8   8   8   8   8   8   8   8   8
  8   8   8   8   8   8   8   8   8   8   8   8   8   8   8   8   8   8   8   8   8   5  35   0
215 255 253 255 255 255 255 255 255 255 255
255 255 255 255 255 255 254 255 230   0  21  11   8   8   8   8   8   8   8   8   8   8   8   8
  8   8   8   8   8   8   8   8   8   8   8   8   8   8   8   8   8   8   8   8   8   8   8   8
  8   8   8   8   8   8   8   8   8   8   8   8   8   8   8   8   8   8   8   8   8   8   8   8
  8   8   8   8   8   8   8   8   8   8   8   8   8   8   8   8   8   8   8   8   8   5  35   0
215 255 253 255 255 255 255 255 255 255 255
255 255 255 255 255 255 254 255 230   0  21  11   8   8   8   8   8   8   8   8   8   8   8   8
  8   8   8   8   8   8   8   8   8   8   8   8   8   8   8   8   8   8   8   8   8   8   8   8
  8   8   8   8   8   8   8   8   8   8   8   8   8   8   8   8   8   8   8   8   8   8   8   8
  8   8   8   8   8   8   8   8   8   8   8   8   8   8   8   8   8   8   8   8   8   5  35   0
215 255 253 255 255 255 255 255 255 255 255
255 255 255 255 255 255 254 255 230   0  21  11   8   8   8   8   8   8   8   8   8   8   8   8
  8   8   8   8   8   8   8   8   8   8   8   8   8   8   8   8   8   8   8   8   8   8   8   8
  8   8   8   8   8   8   8   8   8   8   8   8   8   8   8   8   8   8   8   8   8   8   8   8
  8   8   8   8   8   8   8   8   8   8   8   8   8   8   8   8   8   8   8   8   8   5  35   0
215 255 253 255 255 255 255 255 255 255 255
255 255 255 255 255 255 254 255 230   0  21  11   8   8   8   8   8   8   8   8   8   8   8   8
  8   8   8   8   8   8   8   8   8   8   8   8   8   8   8   8   8   8   8   8   8   8   8   8
  8   8   8   8   8   8   8   8   8   8   8   8   8   8   8   8   8   8   8   8   8   8   8   8
  8   8   8   8   8   8   8   8   8   8   8   8   8   8   8   8   8   8   8   8   8   5  35   0
215 255 253 255 255 255 255 255 255 255 255
255 255 255 255 255 255 254 255 230   0  21  11   8   8   8   8   8   8   8   8   8   8   8   8
  8   8   8   8   8   8   8   8   8   8   8   8   8   8   8   8   8   8   8   8   8   8   8   8
  8   8   8   8   8   8   8   8   8   8   8   8   8   8   8   8   8   8   8   8   8   8   8   8
  8   8   8   8   8   8   8   8   8   8   8   8   8   8   8   8   8   8   8   8   8   5  35   0
215 255 253 255 255 255 255 255 255 255 255
255 255 255 255 255 255 254 255 230   0  21  11   8   8   8   8   8   8   8   8   8   8   8   8
  8   8   8   8   8   8   8   8   8   8   8   8   8   8   8   8   8   8   8   8   8   8   8   8
  8   8   8   8   8   8   8   8   8   8   8   8   8   8   8   8   8   8   8   8   8   8   8   8
  8   8   8   8   8   8   8   8   8   8   8   8   8   8   8   8   8   8   8   8   8   5  35   0
215 255 253 255 255 255 255 255 255 255 255
255 255 255 255 255 255 254 255 230   0  21  11   8   8   8   8   8   8   8   8   8   8   8   8
  8   8   8   8   8   8   8   8   8   8   8   8   8   8   8   8   8   8   8   8   8   8   8   8
  8   8   8   8   8   8   8   8   8   8   8   8   8   8   8   8   8   8   8   8   8   8   8   8
  8   8   8   8   8   8   8   8   8   8   8   8   8   8   8   8   8   8   8   8   8   5  35   0
215 255 253 255 255 255 255 255 255 255 255
255 255 255 255 255 255 254 255 230   0  21  11   8   8   8   8   8   8   8   8   8   8   8   8
  8   8   8   8   8   8   8   8   8   8   8   8   8   8   8   8   8   8   8   8   8   8   8   8
  8   8   8   8   8   8   8   8   8   8   8   8   8   8   8   8   8   8   8   8   8   8   8   8
  8   8   8   8   8   8   8   8   8   8   8   8   8   8   8   8   8   8   8   8   8   5  35   0
215 255 253 255 255 255 255 255 255 255 255
255 255 255 255 255 255 254 255 230   0  21  11   8   8   8   8   8   8   8   8   8   8   8   8
  8   8   8   8   8   8   8   8   8   8   8   8   8   8   8   8   8   8   8   8   8   8   8   8
  8   8   8   8   8   8   8   8   8   8   8   8   8   8   8   8   8   8   8   8   8   8   8   8
  8   8   8   8   8   8   8   8   8   8   8   8   8   8   8   8   8   8   8   8   8   5  35   0
215 255 253 255 255 255 255 255 255 255 255
255 255 255 255 255 255 254 255 230   0  21  11   8   8   8   8   8   8   8   8   8   8   8   8
  8   8   8   8   8   8   8   8   8   8   8   8   8   8   8   8   8   8   8   8   8   8   8   8
  8   8   8   8   8   8   8   8   8   8   8   8   8   8   8   8   8   8   8   8   8   8   8   8
  8   8   8   8   8   8   8   8   8   8   8   8   8   8   8   8   8   8   8   8   8   5  35   0
215 255 253 255 255 255 255 255 255 255 255
255 255 255 255 255 255 254 255 230   0  21  11   8   8   8   8   8   8   8   8   8   8   8   8
  8   8   8   8   8   8   8   8   8   8   8   8   8   8   8   8   8   8   8   8   8   8   8   8
  8   8   8   8   8   8   8   8   8   8   8   8   8   8   8   8   8   8   8   8   8   8   8   8
  8   8   8   8   8   8   8   8   8   8   8   8   8   8   8   8   8   8   8   8   8   5  35   0
215 255 253 255 255 255 255 255 255 255 255
255 255 255 255 255 255 254 255 230   0  21  11   8   8   8   8   8   8   8   8   8   8   8   8
  8   8   8   8   8   8   8   8   8   8   8   8   8   8   8   8   8   8   8   8   8   8   8   8
  8   8   8   8   8   8   8   8   8   8   8   8   8   8   8   8   8   8   8   8   8   8   8   8
  8   8   8   8   8   8   8   8   8   8   8   8   8   8   8   8   8   8   8   8   8   5  35   0
215 255 253 255 255 255 255 255 255 255 255
255 255 255 255 255 255 254 255 230   0  21  11   8   8   8   8   8   8   8   8   8   8   8   8
  8   8   8   8   8   8   8   8   8   8   8   8   8   8   8   8   8   8   8   8   8   8   8   8
  8   8   8   8   8   8   8   8   8   8   8   8   8   8   8   8   8   8   8   8   8   8   8   8
  8   8   8   8   8   8   8   8   8   8   8   8   8   8   8   8   8   8   8   8   8   5  35   0
215 255 253 255 255 255 255 255 255 255 255
255 255 255 255 255 255 254 255 230   0  21  11   8   8   8   8   8   8   8   8   8   8   8   8
  8   8   8   8   8   8   8   8   8   8   8   8   8   8   8   8   8   8   8   8   8   8   8   8
  8   8   8   8   8   8   8   8   8   8   8   8   8   8   8   8   8   8   8   8   8   8   8   8
  8   8   8   8   8   8   8   8   8   8   8   8   8   8   8   8   8   8   8   8   8   5  35   0
215 255 253 255 255 255 255 255 255 255 255
255 255 255 255 255 255 254 255 230   0  21  11   8   8   8   8   8   8   8   8   8   8   8   8
  8   8   8   8   8   8   8   8   8   8   8   8   8   8   8   8   8   8   8   8   8   8   8   8
  8   8   8   8   8   8   8   8   8   8   8   8   8   8   8   8   8   8   8   8   8   8   8   8
  8   8   8   8   8   8   8   8   8   8   8   8   8   8   8   8   8   8   8   8   8   5  35   0
215 255 253 255 255 255 255 255 255 255 255
255 255 255 255 255 255 254 255 230   0  21  11   8   8   8   8   8   8   8   8   8   8   8   8
  8   8   8   8   8   8   8   8   8   8   8   8   8   8   8   8   8   8   8   8   8   8   8   8
  8   8   8   8   8   8   8   8   8   8   8   8   8   8   8   8   8   8   8   8   8   8   8   8
  8   8   8   8   8   8   8   8   8   8   8   8   8   8   8   8   8   8   8   8   8   5  35   0
215 255 253 255 255 255 255 255 255 255 255
255 255 255 255 255 255 254 255 230   0  21  11   8   8   8   8   8   8   8   8   8   8   8   8
  8   8   8   8   8   8   8   8   8   8   8   8   8   8   8   8   8   8   8   8   8   8   8   8
  8   8   8   8   8   8   8   8   8   8   8   8   8   8   8   8   8   8   8   8   8   8   8   8
  8   8   8   8   8   8   8   8   8   8   8   8   8   8   8   8   8   8   8   8   8   5  35   0
215 255 253 255 255 255 255 255 255 255 255
255 255 255 255 255 255 254 255 230   0  21  11   8   8   8   8   8   8   8   8   8   8   8   8
  8   8   8   8   8   8   8   8   8   8   8   8   8   8   8   8   8   8   8   8   8   8   8   8
  8   8   8   8   8   8   8   8   8   8   8   8   8   8   8   8   8   8   8   8   8   8   8   8
  8   8   8   8   8   8   8   8   8   8   8   8   8   8   8   8   8   8   8   8   8   5  35   0
215 255 253 255 255 255 255 255 255 255 255
255 255 255 255 255 255 254 255 230   0  21  11   8   8   8   8   8   8   8   8   8   8   8   8
  8   8   8   8   8   8   8   8   8   8   8   8   8   8   8   8   8   8   8   8   8   8   8   8
  8   8   8   8   8   8   8   8   8   8   8   8   8   8   8   8   8   8   8   8   8   8   8   8
  8   8   8   8   8   8   8   8   8   8   8   8   8   8   8   8   8   8   8   8   8   5  35   0
215 255 253 255 255 255 255 255 255 255 255
255 255 255 255 255 255 254 255 230   0  21  11   8   8   8   8   8   8   8   8   8   8   8   8
  8   8   8   8   8   8   8   8   8   8   8   8   8   8   8   8   8   8   8   8   8   8   8   8
  8   8   8   8   8   8   8   8   8   8   8   8   8   8   8   8   8   8   8   8   8   8   8   8
  8   8   8   8   8   8   8   8   8   8   8   8   8   8   8   8   8   8   8   8   8   5  35   0
215 255 253 255 255 255 255 255 255 255 255
255 255 255 255 255 255 254 255 230   0  21  11   8   8   8   8   8   8   8   8   8   8   8   8
  8   8   8   8   8   8   8   8   8   8   8   8   8   8   8   8   8   8   8   8   8   8   8   8
  8   8   8   8   8   8   8   8   8   8   8   8   8   8   8   8   8   8   8   8   8   8   8   8
  8   8   8   8   8   8   8   8   8   8   8   8   8   8   8   8   8   8   8   8   8   5  35   0
215 255 253 255 255 255 255 255 255 255 255
255 255 255 255 255 255 254 255 230   0  21  11   8   8   8   8   8   8   8   8   8   8   8   8
  8   8   8   8   8   8   8   8   8   8   8   8   8   8   8   8   8   8   8   8   8   8   8   8
  8   8   8   8   8   8   8   8   8   8   8   8   8   8   8   8   8   8   8   8   8   8   8   8
  8   8   8   8   8   8   8   8   8   8   8   8   8   8   8   8   8   8   8   8   8   5  35   0
215 255 253 255 255 255 255 255 255 255 255
255 255 255 255 255 255 254 255 230   0  21  11   8   8   8   8   8   8   8   8   8   8   8   8
  8   8   8   8   8   8   8   8   8   8   8   8   8   8   8   8   8   8   8   8   8   8   8   8
  8   8   8   8   8   8   8   8   8   8   8   8   8   8   8   8   8   8   8   8   8   8   8   8
  8   8   8   8   8   8   8   8   8   8   8   8   8   8   8   8   8   8   8   8   8   5  35   0
215 255 253 255 255 255 255 255 255 255 255
255 255 255 255 255 255 254 255 230   0  21  11   9   8   8   8   8   8   8   8   8   8   8   8
  8   8   8   8   8   8   8   8   8   8   8   8   8   8   8   8   8   8   8   8   8   8   8   8
  8   8   8   8   8   8   8   8   8   8   8   8   8   8   8   8   8   8   8   8   8   8   8   8
  8   8   8   8   8   8   8   8   8   8   8   8   8   8   8   8   8   8   8   8   8   5  35   0
215 255 253 255 255 255 255 255 255 255 255
255 255 255 255 255 255 254 255 231   0  18   7   4   4   4   4   4   3   3   3   3   3   3   3
  3   3   4   3   3   3   3   3   3   4   3   4   3   3   3   3   3   4   3   3   3   3   3   3
  3   3   3   3   3   4   3   3   3   3   3   3   3   3   3   3   3   3   3   3   3   4   3   3
  3   3   4   3   3   3   3   3   3   3   4   3   3   3   3   3   3   3   3   3   4   1  33   0
215 255 253 255 255 255 255 255 255 255 255
255 255 255 255 255 255 254 255 230   0  41  35  34  34  34  34  34  34  34  34  34  34  34  34
 34  34  34  34  34  34  34  34  34  34  34  34  34  34  34  34  34  34  34  34  34  34  34  34
 34  34  34  34  34  34  34  34  34  34  34  34  34  34  34  34  34  34  34  34  34  34  34  34
 34  34  34  34  34  34  34  34  34  34  34  34  34  34  34  34  34  34  34  34  34  33  48   0
215 255 253 255 255 255 255 255 255 255 255
255 255 255 255 255 255 254 255 232   0   0   0   0   0   0   0   0   0   0   0   0   0   0   0
  0   0   0   0   0   0   0   0   0   0   0   0   0   0   0   0   0   0   0   0   0   0   0   0
  0   0   0   0   0   0   0   0   0   0   0   0   0   0   0   0   0   0   0   0   0   0   0   0
  0   0   0   0   0   0   0   0   0   0   0   0   0   0   0   0   0   0   0   0   0   0   0   0
212 255 253 255 255 255 255 255 255 255 255
255 255 255 255 255 255 255 255 252 220 216 217 216 217 217 217 217 217 217 217 217 216 216 217
216 217 217 216 217 217 216 216 216 217 216 216 216 216 217 216 217 216 217 217 217 216 216 216
216 217 216 216 217 216 217 216 217 217 216 217 216 217 216 216 216 217 216 217 216 217 216 217
217 217 217 217 217 216 216 217 217 217 217 217 216 217 216 217 216 217 217 217 216 216 217 214
244 255 254 255 255 255 255 255 255 255 255
255 255 255 255 255 255 255 255 255 255 255 255 255 255 255 255 255 255 255 255 255 255 255 255
255 255 255 255 255 255 255 255 255 255 255 255 255 255 255 255 255 255 255 255 255 255 255 255
255 255 255 255 255 255 255 255 255 255 255 255 255 255 255 255 255 255 255 255 255 255 255 255
255 255 255 255 255 255 255 255 255 255 255 255 255 255 255 255 255 255 255 255 255 255 255 255
255 254 255 255 255 255 255 255 255 255 255
255 255 255 255 255 255 255 255 255 253 253 253 253 253 253 253 253 253 253 253 253 253 253 253
253 253 253 253 253 253 253 253 253 253 253 253 253 253 253 253 253 253 253 253 253 253 253 253
253 253 253 253 253 253 253 253 253 253 253 253 253 253 253 253 253 253 253 253 253 253 253 253
253 253 253 253 253 253 253 253 253 253 253 253 253 253 253 253 253 253 253 253 253 253 253 253
254 255 255 255 255 255 255 255 255 255 255
255 255 255 255 255 255 255 255 255 255 255 255 255 255 255 255 255 255 255 255 255 255 255 255
255 255 255 255 255 255 255 255 255 255 255 255 255 255 255 255 255 255 255 255 255 255 255 255
255 255 255 255 255 255 255 255 255 255 255 255 255 255 255 255 255 255 255 255 255 255 255 255
255 255 255 255 255 255 255 255 255 255 255 255 255 255 255 255 255 255 255 255 255 255 255 255
255 255 255 255 255 255 255 255 255 255 255
255 255 255 255 255 255 255 255 255 255 255 255 255 255 255 255 255 255 255 255 255 255 255 255
255 255 255 255 255 255 255 255 255 255 255 255 255 255 255 255 255 255 255 255 255 255 255 255
255 255 255 255 255 255 255 255 255 255 255 255 255 255 255 255 255 255 255 255 255 255 255 255
255 255 255 255 255 255 255 255 255 255 255 255 255 255 255 255 255 255 255 255 255 255 255 255
255 255 255 255 255 255 255 255 255 255 255
